mtllib d6.mtl
o Dice_d6_LP_M_d6_0
usemtl M_d6.png
v -0.65300001592189 -0.65300001592189 -0.6999999843537807
v 0.65300001592189 0.65300001592189 -0.6999999843537807
v 0.65300001592189 -0.65300001592189 -0.6999999843537807
v -0.65300001592189 0.6999999843537807 0.65300001592189
v 0.65300001592189 0.6999999843537807 0.65300001592189
v -0.65300001592189 0.6999999843537807 -0.65300001592189
v 0.6999999843537807 0.65300001592189 -0.65300001592189
v 0.6999999843537807 0.65300001592189 0.65300001592189
v 0.6999999843537807 -0.65300001592189 -0.65300001592189
v 0.6999999843537807 -0.65300001592189 0.65300001592189
v -0.6999999843537807 0.65300001592189 0.65300001592189
v -0.6999999843537807 0.65300001592189 -0.65300001592189
v -0.6999999843537807 -0.65300001592189 0.65300001592189
v 0.65300001592189 -0.6999999843537807 0.65300001592189
v -0.65300001592189 -0.6999999843537807 0.65300001592189
v 0.65300001592189 -0.6999999843537807 -0.65300001592189
v -0.6999999843537807 -0.65300001592189 -0.65300001592189
v 0.65300001592189 0.65300001592189 0.6999999843537807
v -0.65300001592189 0.65300001592189 0.6999999843537807
v 0.65300001592189 -0.65300001592189 0.6999999843537807
v -0.65300001592189 0.65300001592189 -0.6999999843537807
v -0.65300001592189 -0.6999999843537807 -0.65300001592189
v -0.65300001592189 -0.65300001592189 0.6999999843537807
v 0.65300001592189 0.6999999843537807 -0.65300001592189
v 0.6999999843537807 0.65300001592189 -0.65300001592189
v 0.65300001592189 0.65300001592189 -0.6999999843537807
v 0.65300001592189 0.6999999843537807 0.65300001592189
v 0.65300001592189 0.65300001592189 0.6999999843537807
v 0.6999999843537807 0.65300001592189 0.65300001592189
v 0.65300001592189 -0.65300001592189 -0.6999999843537807
v 0.6999999843537807 -0.65300001592189 -0.65300001592189
v 0.65300001592189 -0.6999999843537807 -0.65300001592189
v 0.65300001592189 -0.6999999843537807 0.65300001592189
v 0.6999999843537807 -0.65300001592189 0.65300001592189
v 0.65300001592189 -0.65300001592189 0.6999999843537807
v -0.65300001592189 0.65300001592189 -0.6999999843537807
v -0.6999999843537807 0.65300001592189 -0.65300001592189
v -0.65300001592189 0.6999999843537807 -0.65300001592189
v -0.65300001592189 -0.65300001592189 -0.6999999843537807
v -0.65300001592189 -0.6999999843537807 -0.65300001592189
v -0.6999999843537807 -0.65300001592189 -0.65300001592189
v -0.65300001592189 0.6999999843537807 0.65300001592189
v -0.6999999843537807 0.65300001592189 0.65300001592189
v -0.65300001592189 0.65300001592189 0.6999999843537807
v -0.65300001592189 -0.65300001592189 0.6999999843537807
v -0.6999999843537807 -0.65300001592189 0.65300001592189
v -0.65300001592189 -0.6999999843537807 0.65300001592189
v 0.65300001592189 0.6999999843537807 0.65300001592189
v 0.6999999843537807 0.65300001592189 -0.65300001592189
v 0.65300001592189 0.6999999843537807 -0.65300001592189
v 0.6999999843537807 -0.65300001592189 -0.65300001592189
v 0.65300001592189 0.65300001592189 -0.6999999843537807
v 0.6999999843537807 0.65300001592189 -0.65300001592189
v 0.6999999843537807 -0.65300001592189 0.65300001592189
v 0.65300001592189 -0.6999999843537807 -0.65300001592189
v 0.6999999843537807 -0.65300001592189 -0.65300001592189
v -0.65300001592189 0.65300001592189 -0.6999999843537807
v 0.65300001592189 0.6999999843537807 -0.65300001592189
v 0.65300001592189 0.65300001592189 -0.6999999843537807
v -0.65300001592189 -0.65300001592189 -0.6999999843537807
v -0.6999999843537807 0.65300001592189 -0.65300001592189
v -0.65300001592189 0.65300001592189 -0.6999999843537807
v -0.6999999843537807 0.65300001592189 0.65300001592189
v -0.65300001592189 0.6999999843537807 -0.65300001592189
v -0.6999999843537807 0.65300001592189 -0.65300001592189
v -0.6999999843537807 -0.65300001592189 0.65300001592189
v -0.65300001592189 0.65300001592189 0.6999999843537807
v -0.6999999843537807 0.65300001592189 0.65300001592189
v -0.65300001592189 -0.6999999843537807 0.65300001592189
v -0.6999999843537807 -0.65300001592189 -0.65300001592189
v -0.65300001592189 -0.6999999843537807 -0.65300001592189
v 0.65300001592189 -0.65300001592189 0.6999999843537807
v 0.6999999843537807 0.65300001592189 0.65300001592189
v 0.65300001592189 0.65300001592189 0.6999999843537807
v -0.65300001592189 0.6999999843537807 0.65300001592189
v 0.65300001592189 0.65300001592189 0.6999999843537807
v 0.65300001592189 0.6999999843537807 0.65300001592189
v -0.65300001592189 -0.6999999843537807 -0.65300001592189
v 0.65300001592189 -0.65300001592189 -0.6999999843537807
v 0.65300001592189 -0.6999999843537807 -0.65300001592189
v -0.65300001592189 -0.65300001592189 0.6999999843537807
v 0.65300001592189 -0.6999999843537807 0.65300001592189
v 0.65300001592189 -0.65300001592189 0.6999999843537807
v 0.65300001592189 0.6999999843537807 -0.65300001592189
v 0.6999999843537807 0.65300001592189 0.65300001592189
v 0.65300001592189 -0.65300001592189 -0.6999999843537807
v 0.65300001592189 -0.6999999843537807 0.65300001592189
v -0.65300001592189 0.6999999843537807 -0.65300001592189
v -0.6999999843537807 -0.65300001592189 -0.65300001592189
v -0.65300001592189 0.6999999843537807 0.65300001592189
v -0.65300001592189 -0.65300001592189 0.6999999843537807
v -0.6999999843537807 -0.65300001592189 0.65300001592189
v 0.6999999843537807 -0.65300001592189 0.65300001592189
v -0.65300001592189 0.65300001592189 0.6999999843537807
v -0.65300001592189 -0.65300001592189 -0.6999999843537807
v -0.65300001592189 -0.6999999843537807 0.65300001592189
vt 0.3024121820926666 0.06149512529373169
vt 0.015634141862392426 0.3482730984687805
vt 0.3024121820926666 0.3482731580734253
vt 0.3024121820926666 0.697587788105011
vt 0.01563415490090847 0.6975878179073334
vt 0.302412211894989 0.9843658320605755
vt 0.33368051052093506 0.6975878179073334
vt 0.33368051052093506 0.9843658171594143
vt 0.6204586029052734 0.6975878179073334
vt 0.6204586029052734 0.9843658581376076
vt 0.33368054032325745 0.37954145669937134
vt 0.33368051052093506 0.6663194596767426
vt 0.6204586029052734 0.37954145669937134
vt 0.015634141862392426 0.37954139709472656
vt 0.015634141862392426 0.6663194596767426
vt 0.3024121820926666 0.37954139709472656
vt 0.6204586029052734 0.6663194894790649
vt 0.6517268419265747 0.6975878477096558
vt 0.6517268419265747 0.9843657910823822
vt 0.9385048747062683 0.6975878477096558
vt 0.015634167939424515 0.06149512529373169
vt 0.3024121820926666 0.6663194894790649
vt 0.9385048747062683 0.9843658581376076
vt 0.8125 0.140625
vt 0.80078125 0.1484375
vt 0.8125 0.15625
vt 0.75390625 0.28515625
vt 0.76953125 0.29296875
vt 0.76953125 0.28125
vt 0.76953125 0.140625
vt 0.75390625 0.1484375
vt 0.76953125 0.15625
vt 0.8125 0.25
vt 0.8125 0.234375
vt 0.80078125 0.2421875
vt 0.76953125 0.1875
vt 0.75390625 0.1953125
vt 0.76953125 0.203125
vt 0.8125 0.28125
vt 0.80078125 0.28515625
vt 0.8125 0.29296875
vt 0.75390625 0.2421875
vt 0.76953125 0.25
vt 0.76953125 0.234375
vt 0.8125 0.1875
vt 0.80078125 0.1953125
vt 0.8125 0.203125
vt 0.65234375 0.65234375
vt 0.9375 0.66796875
vt 0.9375 0.65234375
vt 0.9375 0.4921875
vt 0.65234375 0.4765625
vt 0.65234375 0.4921875
vt 0.33368051052093506 0.10435926914215088
vt 0.6204591393470764 0.118954598903656
vt 0.6204591393470764 0.10435932874679565
vt 0.6204591393470764 0.30240947008132935
vt 0.33368051052093506 0.287814199924469
vt 0.33368051052093506 0.30240947008132935
vt 0.9375 0.53515625
vt 0.65234375 0.5234375
vt 0.65234375 0.53515625
vt 0.6204591393470764 0.34827321767807007
vt 0.33368051052093506 0.33367788791656494
vt 0.33368051052093506 0.34827321767807007
vt 0.9375 0.58203125
vt 0.65234375 0.56640625
vt 0.65234375 0.58203125
vt 0.6204591393470764 0.21068209409713745
vt 0.33368051052093506 0.19608676433563232
vt 0.33368051052093506 0.21068209409713745
vt 0.9375 0.4453125
vt 0.65234375 0.4296875
vt 0.65234375 0.4453125
vt 0.33368051052093506 0.15022295713424683
vt 0.6204591393470764 0.16481828689575195
vt 0.6204591393470764 0.1502230167388916
vt 0.6204591393470764 0.2565457820892334
vt 0.33368051052093506 0.24195045232772827
vt 0.33368051052093506 0.2565457820892334
vt 0.65234375 0.60546875
vt 0.9375 0.62109375
vt 0.9375 0.60546875
vt 0.015634141862392426 0.9843658581376076
vt 0.65234375 0.66796875
vt 0.9375 0.4765625
vt 0.33368051052093506 0.11895465850830078
vt 0.6204591393470764 0.28781408071517944
vt 0.9375 0.5234375
vt 0.6204591393470764 0.3336777687072754
vt 0.9375 0.56640625
vt 0.6204591393470764 0.19608664512634277
vt 0.9375 0.4296875
vt 0.33368051052093506 0.16481834650039673
vt 0.6204591393470764 0.24195033311843872
vt 0.65234375 0.62109375
vn 0 0 -1
vn 0 0 -1
vn 0 0 -1
vn 0 1 0
vn 0 1 0
vn 0 1 0
vn 1 0 0
vn 1 0 0
vn 1 0 0
vn 1 0 0
vn -1 0 0
vn -1 0 0
vn -1 0 0
vn 0 -1 0
vn 0 -1 0
vn 0 -1 0
vn -1 0 0
vn 0 0 1
vn 0 0 1
vn 0 0 1
vn 0 0 -1
vn 0 -1 0
vn 0 0 1
vn 0.46056337091536304 0.7587909255175884 -0.46056238743870437
vn 0.7587909255175884 0.46056238743870437 -0.46056337091536304
vn 0.4605625778756004 0.4605631143173583 -0.7587909656755788
vn 0.46056248136158634 0.7587908838574485 0.4605633456289055
vn 0.4605633456289055 0.46056248136158634 0.7587908838574485
vn 0.7587909403891485 0.4605630755428303 0.4605626583103331
vn 0.4605633456289055 -0.46056248136158634 -0.7587908838574485
vn 0.7587909403891485 -0.4605630755428303 -0.4605626583103331
vn 0.46056248136158634 -0.7587908838574485 -0.4605633456289055
vn 0.46056337091536304 -0.7587909255175884 0.46056238743870437
vn 0.7587909255175884 -0.46056238743870437 0.46056337091536304
vn 0.4605625778756004 -0.4605631143173583 0.7587909656755788
vn -0.4605633456289055 0.46056248136158634 -0.7587908838574485
vn -0.7587909403891485 0.4605630755428303 -0.4605626583103331
vn -0.46056248136158634 0.7587908838574485 -0.4605633456289055
vn -0.4605625778756004 -0.4605631143173583 -0.7587909656755788
vn -0.46056337091536304 -0.7587909255175884 -0.46056238743870437
vn -0.7587909255175884 -0.46056238743870437 -0.46056337091536304
vn -0.46056337091536304 0.7587909255175884 0.46056238743870437
vn -0.7587909255175884 0.46056238743870437 0.46056337091536304
vn -0.4605625778756004 0.4605631143173583 0.7587909656755788
vn -0.4605633456289055 -0.46056248136158634 0.7587908838574485
vn -0.7587909403891485 -0.4605630755428303 0.4605626583103331
vn -0.46056248136158634 -0.7587908838574485 0.4605633456289055
vn 0.46056248136158634 0.7587908838574485 0.4605633456289055
vn 0.7587909255175884 0.46056238743870437 -0.46056337091536304
vn 0.46056337091536304 0.7587909255175884 -0.46056238743870437
vn 0.7587909403891485 -0.4605630755428303 -0.4605626583103331
vn 0.4605625778756004 0.4605631143173583 -0.7587909656755788
vn 0.7587909255175884 0.46056238743870437 -0.46056337091536304
vn 0.7587909255175884 -0.46056238743870437 0.46056337091536304
vn 0.46056248136158634 -0.7587908838574485 -0.4605633456289055
vn 0.7587909403891485 -0.4605630755428303 -0.4605626583103331
vn -0.4605633456289055 0.46056248136158634 -0.7587908838574485
vn 0.46056337091536304 0.7587909255175884 -0.46056238743870437
vn 0.4605625778756004 0.4605631143173583 -0.7587909656755788
vn -0.4605625778756004 -0.4605631143173583 -0.7587909656755788
vn -0.7587909403891485 0.4605630755428303 -0.4605626583103331
vn -0.4605633456289055 0.46056248136158634 -0.7587908838574485
vn -0.7587909255175884 0.46056238743870437 0.46056337091536304
vn -0.46056248136158634 0.7587908838574485 -0.4605633456289055
vn -0.7587909403891485 0.4605630755428303 -0.4605626583103331
vn -0.7587909403891485 -0.4605630755428303 0.4605626583103331
vn -0.4605625778756004 0.4605631143173583 0.7587909656755788
vn -0.7587909255175884 0.46056238743870437 0.46056337091536304
vn -0.46056248136158634 -0.7587908838574485 0.4605633456289055
vn -0.7587909255175884 -0.46056238743870437 -0.46056337091536304
vn -0.46056337091536304 -0.7587909255175884 -0.46056238743870437
vn 0.4605625778756004 -0.4605631143173583 0.7587909656755788
vn 0.7587909403891485 0.4605630755428303 0.4605626583103331
vn 0.4605633456289055 0.46056248136158634 0.7587908838574485
vn -0.46056337091536304 0.7587909255175884 0.46056238743870437
vn 0.4605633456289055 0.46056248136158634 0.7587908838574485
vn 0.46056248136158634 0.7587908838574485 0.4605633456289055
vn -0.46056337091536304 -0.7587909255175884 -0.46056238743870437
vn 0.4605633456289055 -0.46056248136158634 -0.7587908838574485
vn 0.46056248136158634 -0.7587908838574485 -0.4605633456289055
vn -0.4605633456289055 -0.46056248136158634 0.7587908838574485
vn 0.46056337091536304 -0.7587909255175884 0.46056238743870437
vn 0.4605625778756004 -0.4605631143173583 0.7587909656755788
vn 0 1 0
vn 0.7587909403891485 0.4605630755428303 0.4605626583103331
vn 0.4605633456289055 -0.46056248136158634 -0.7587908838574485
vn 0.46056337091536304 -0.7587909255175884 0.46056238743870437
vn -0.46056248136158634 0.7587908838574485 -0.4605633456289055
vn -0.7587909255175884 -0.46056238743870437 -0.46056337091536304
vn -0.46056337091536304 0.7587909255175884 0.46056238743870437
vn -0.4605633456289055 -0.46056248136158634 0.7587908838574485
vn -0.7587909403891485 -0.4605630755428303 0.4605626583103331
vn 0.7587909255175884 -0.46056238743870437 0.46056337091536304
vn -0.4605625778756004 0.4605631143173583 0.7587909656755788
vn -0.4605625778756004 -0.4605631143173583 -0.7587909656755788
vn -0.46056248136158634 -0.7587908838574485 0.4605633456289055
f 1/1/1 2/2/2 3/3/3
f 4/4/4 5/5/5 6/6/6
f 7/7/7 8/8/8 9/9/9
f 9/9/9 8/8/8 10/10/10
f 11/11/11 12/12/12 13/13/13
f 14/14/14 15/15/15 16/16/16
f 13/13/13 12/12/12 17/17/17
f 18/18/18 19/19/19 20/20/20
f 21/21/21 2/2/2 1/1/1
f 16/16/16 15/15/15 22/22/22
f 20/20/20 19/19/19 23/23/23
f 24/24/24 25/25/25 26/26/26
f 27/27/27 28/28/28 29/29/29
f 30/30/30 31/31/31 32/32/32
f 33/33/33 34/34/34 35/35/35
f 36/36/36 37/37/37 38/38/38
f 39/39/39 40/40/40 41/41/41
f 42/42/42 43/43/43 44/44/44
f 45/45/45 46/46/46 47/47/47
f 48/48/48 49/49/49 50/50/50
f 51/51/51 52/52/52 53/53/53
f 54/54/54 55/55/55 56/56/56
f 57/57/57 58/58/58 59/59/59
f 60/60/60 61/61/61 62/62/62
f 63/63/63 64/64/64 65/65/65
f 66/66/66 67/67/67 68/68/68
f 69/69/69 70/70/70 71/71/71
f 72/72/72 73/73/73 74/74/74
f 75/75/75 76/76/76 77/77/77
f 78/78/78 79/79/79 80/80/80
f 81/81/81 82/82/82 83/83/83
f 6/6/6 5/5/5 84/84/84
f 48/48/48 85/85/85 49/49/49
f 51/51/51 86/86/86 52/52/52
f 54/54/54 87/87/87 55/55/55
f 57/57/57 88/88/88 58/58/58
f 60/60/60 89/89/89 61/61/61
f 63/63/63 90/90/90 64/64/64
f 66/66/66 91/91/91 67/67/67
f 69/69/69 92/92/92 70/70/70
f 72/72/72 93/93/93 73/73/73
f 75/75/75 94/94/94 76/76/76
f 78/78/78 95/95/95 79/79/79
f 81/81/81 96/96/96 82/82/82
